<?xml version="1.0" encoding="UTF-8"?> <svg xmlns="http://www.w3.org/2000/svg" xmlns:xlink="http://www.w3.org/1999/xlink" id="Olive-Branch-" width="327" height="114.626" viewBox="0 0 327 114.626"><defs><clipPath id="clip-path"><rect id="Rectangle_17" data-name="Rectangle 17" width="327" height="114.626" fill="none"></rect></clipPath></defs><g id="Group_10" data-name="Group 10" clip-path="url(#clip-path)"><path id="Path_62" data-name="Path 62" d="M445.727,239.259a4.441,4.441,0,0,0-.894-.926,4.505,4.505,0,0,0,.517-.7,4.6,4.6,0,0,0,.654-2.388,4.859,4.859,0,0,0-.467-2.074,4.258,4.258,0,0,0-1.385-1.68,3.7,3.7,0,0,0-2.22-.694h-7.381V246.49h7.4a4.679,4.679,0,0,0,2.329-.595,4.591,4.591,0,0,0,1.68-1.6,4.368,4.368,0,0,0,.631-2.306,4.607,4.607,0,0,0-.863-2.728m-2.2,3.531a1.991,1.991,0,0,1-.681.731,1.632,1.632,0,0,1-.9.254h-4.585V239.9h4.721a1.344,1.344,0,0,1,.808.25,2.07,2.07,0,0,1,.649.735,2,2,0,0,1,.236.962,1.889,1.889,0,0,1-.25.939m-6.164-9.274h4.29a1.306,1.306,0,0,1,.767.222,1.662,1.662,0,0,1,.572.663,2.149,2.149,0,0,1,.218.98,2.032,2.032,0,0,1-.854,1.63,1.4,1.4,0,0,1-.822.236h-4.172Z" transform="translate(-259.441 -137.794)" fill="#f5f1ee"></path><path id="Path_63" data-name="Path 63" d="M489.5,240.707a4.35,4.35,0,0,0,.876-.559,5.044,5.044,0,0,0,1.389-1.829,5.517,5.517,0,0,0,.495-2.311,5.112,5.112,0,0,0-.368-1.9,5.767,5.767,0,0,0-1-1.638,5.157,5.157,0,0,0-1.543-1.2,4.465,4.465,0,0,0-2.043-.472h-6.673V246.49h2.81v-5.234h3.091l3.364,5.234h3.309Zm-6.055-7.19h3.822a1.75,1.75,0,0,1,1.039.318,2.637,2.637,0,0,1,.831.935,2.535,2.535,0,0,1,.309,1.239,3,3,0,0,1-.277,1.28,2.3,2.3,0,0,1-.74.917,1.648,1.648,0,0,1-1.025.314h-3.958Z" transform="translate(-286.954 -137.794)" fill="#f5f1ee"></path><path id="Path_64" data-name="Path 64" d="M529.53,230.428H528.6l-.1-.25-.1.25h-.926l-6.677,15.692h3.055l1.9-4.571h5.493l1.893,4.571h3.032Zm-2.687,8.484,1.657-3.99,1.648,3.99Z" transform="translate(-310.929 -137.424)" fill="#f5f1ee"></path><path id="Path_65" data-name="Path 65" d="M585.794,230.8v15.692h-1v.041l-.032-.041H583.47L575.3,236.172v10.318h-2.814V230.8h2.17l8.325,10.517V230.8Z" transform="translate(-341.792 -137.793)" fill="#f5f1ee"></path><path id="Path_66" data-name="Path 66" d="M635.637,241.873l-.349.8a5.467,5.467,0,0,1-1.611,2.106,7.466,7.466,0,0,1-2.274,1.248,7.653,7.653,0,0,1-2.46.418,6.486,6.486,0,0,1-3.014-.717,7.624,7.624,0,0,1-2.338-1.861,8.619,8.619,0,0,1-2.025-5.483,8.188,8.188,0,0,1,.495-2.778A8.273,8.273,0,0,1,623.5,233.1a7.229,7.229,0,0,1,2.351-1.843,7.154,7.154,0,0,1,3.191-.7,6.577,6.577,0,0,1,3.659,1,6.283,6.283,0,0,1,2.279,2.542l.372.763-2.388,1.362-.431-.844a3.621,3.621,0,0,0-.958-1.23,3.66,3.66,0,0,0-1.23-.649,4.864,4.864,0,0,0-1.38-.209,4.172,4.172,0,0,0-1.92.427,4.468,4.468,0,0,0-1.439,1.167,5.494,5.494,0,0,0-.912,1.68,5.873,5.873,0,0,0-.313,1.879,5.486,5.486,0,0,0,.367,2.006,5.773,5.773,0,0,0,1.017,1.7,4.9,4.9,0,0,0,1.488,1.153,4.086,4.086,0,0,0,3.2.172,4.447,4.447,0,0,0,1.357-.731,3.427,3.427,0,0,0,.971-1.239l.4-.808Z" transform="translate(-371.094 -137.652)" fill="#f5f1ee"></path><path id="Path_67" data-name="Path 67" d="M683.942,230.8v15.692h-2.814v-6.641h-6.936v6.641h-2.814V230.8h2.814v6.332h6.936V230.8Z" transform="translate(-400.833 -137.793)" fill="#f5f1ee"></path><path id="Path_68" data-name="Path 68" d="M353.693,75.9c16.928,0,27.953,10.914,27.953,26.728s-11.025,26.728-27.953,26.728c-17.15,0-28.064-10.914-28.064-26.728S336.543,75.9,353.693,75.9m0,52.565c11.805,0,16.817-10.58,16.817-25.837S365.5,76.791,353.693,76.791c-11.693,0-16.927,10.58-16.927,25.837s5.234,25.837,16.927,25.837" transform="translate(-194.411 -45.315)" fill="#f5f1ee"></path><path id="Path_69" data-name="Path 69" d="M475.488,20.406V84.442c0,7.35,1.782,9.912,6.348,9.912v.556H460.231v-.556c4.232,0,5.234-1.894,5.234-9.912V29.649c0-3.563-2.561-5.457-6.57-4.788l-.334-.779,15.7-4.9c.668-.222,1.225.446,1.225,1.225" transform="translate(-273.775 -11.426)" fill="#f5f1ee"></path><path id="Path_70" data-name="Path 70" d="M528,43.568V85.331c0,7.35,1.781,9.912,6.348,9.912V95.8H512.741v-.556c4.566,0,5.234-2.562,5.234-9.912V52.812c0-3.563-2.562-5.457-6.571-4.788l-.334-.779,15.7-4.9c.668-.223,1.225.445,1.225,1.225m-6.46-22.941c4.009,0,6.682,2.784,6.682,6.9,0,4.232-2.673,7.016-6.682,7.016-3.9,0-6.57-2.784-6.57-7.016,0-4.12,2.672-6.9,6.57-6.9" transform="translate(-305.126 -12.315)" fill="#f5f1ee"></path><path id="Path_71" data-name="Path 71" d="M589.138,117.373,601.5,87.415c2.784-6.793-3.453-9.577-6.682-9.577v-.557h18.821v.557c-3.229,0-7.016,2.45-10.357,10.023l-18.375,41.762h-.779l-20.6-42.987c-3.563-7.461-4.789-8.8-7.684-8.8v-.557h23.832v.557c-4.788,0-7.016,3.23-5.122,7.351Z" transform="translate(-331.854 -46.139)" fill="#f5f1ee"></path><path id="Path_72" data-name="Path 72" d="M691.065,98.953v2.562c0,14.589,5.9,24.946,19.266,24.946,11.36,0,20.046-7.573,21.716-16.7h.891c-1.337,11.137-9.8,19.6-24.5,19.6-16.705,0-28.51-10.914-28.51-26.727S690.284,75.9,706.433,75.9c11.8,0,19.378,3.9,19.378,10.58,0,6.459-6.682,10.585-14.144,11.921m-7.461-.562c3.452-.111,14.923-2,14.923-11.359,0-5.346-5.012-9.689-12.585-9.689-9.8,0-14.589,8.464-15.368,21.048Z" transform="translate(-405.939 -45.315)" fill="#f5f1ee"></path><path id="Path_73" data-name="Path 73" d="M267.077,89.6a58.071,58.071,0,0,1-.687,8.906l-11.447-6.793V54.282q1.247,1.6,2.384,3.281a57.191,57.191,0,0,1,9.75,32.036" transform="translate(-152.209 -32.408)" fill="#f5f1ee"></path><path id="Path_74" data-name="Path 74" d="M227.6,29.688V70.459l-13.407,9.872-.442-25.912c-.035-.826-.1-1.653-.21-2.467V18.32A57.329,57.329,0,0,1,227.6,29.688" transform="translate(-127.492 -10.938)" fill="#f5f1ee"></path><path id="Path_75" data-name="Path 75" d="M242.224,160.238q-.505,2.447-1.225,4.842l-.057.193a57.315,57.315,0,0,1-2.069,5.721H215.367l-.017-4.046L215.3,164l14.841-10.935Z" transform="translate(-128.542 -91.387)" fill="#f5f1ee"></path><path id="Path_76" data-name="Path 76" d="M237.8,204.065a57.478,57.478,0,0,1-4.741,8.026H215.532l-.035-8.026Z" transform="translate(-128.659 -121.833)" fill="#f5f1ee"></path><path id="Path_77" data-name="Path 77" d="M120.861,230.5a57.439,57.439,0,0,1-90,0Z" transform="translate(-18.424 -137.613)" fill="#f5f1ee"></path><path id="Path_78" data-name="Path 78" d="M130.6,202.694H77.632v-8.35l19.911-6.019h13.092l19.924,5.993Z" transform="translate(-46.349 -112.436)" fill="#f5f1ee"></path><path id="Path_79" data-name="Path 79" d="M130.49,101.881l-.542-32.027c-.026-.591-.07-1.181-.136-1.767h-.079v-.669a26.969,26.969,0,0,0-8.267-16.044,26.491,26.491,0,0,0-18.857-7.327,25.332,25.332,0,0,0-18.078,8.044A25.813,25.813,0,0,0,77.585,71l0,.057v34.407l19.526-5.9h7.6l-.31-.087c-1.478-.416-8.941-2.585-10.865-4.352a5.719,5.719,0,0,1,7.746-8.416,12.49,12.49,0,0,1,2.226,3.875l.306-1.382c.092-.411.285-1.251.551-2.309l-.665-.188c-1.478-.415-8.941-2.581-10.865-4.352a5.718,5.718,0,1,1,7.747-8.412c1.723,1.584,3.731,7.8,4.5,10.327.761-2.607,1.759-5.432,2.764-6.478a5.72,5.72,0,0,1,8.084-.17,5.723,5.723,0,0,1,.17,8.083c-1.807,1.885-9.12,4.514-10.568,5.021l-1.719.6q.21.525.407,1.05c.879,2.367,1.574,4.7,1.8,5.472l.5,1.715h4.457l19.53,5.874ZM111.318,66.958c-.332,2.589-4.649,9.054-5.511,10.323l-1.325,1.955-.958-2.161c-.652-1.466-3.889-8.923-3.547-11.57a5.726,5.726,0,0,1,5.665-5,5.9,5.9,0,0,1,.73.048,5.73,5.73,0,0,1,4.947,6.4" transform="translate(-46.306 -26.293)" fill="#f5f1ee"></path><path id="Path_80" data-name="Path 80" d="M37.155,204.065v8.026H18.968a56.685,56.685,0,0,1-4.737-8.026Z" transform="translate(-8.496 -121.833)" fill="#f5f1ee"></path><path id="Path_81" data-name="Path 81" d="M31.258,161.276v9.719H7.144c-.708-1.671-1.334-3.359-1.863-5.039-.341-1.076-.652-2.156-.927-3.25l13.083-9.636Z" transform="translate(-2.599 -91.388)" fill="#f5f1ee"></path><path id="Path_82" data-name="Path 82" d="M52.988,61.078V77.966L40.749,70.7V28.115q1.391-1.417,2.878-2.734a56.721,56.721,0,0,1,9.295-6.736V61.078Z" transform="translate(-24.328 -11.132)" fill="#f5f1ee"></path><path id="Path_83" data-name="Path 83" d="M13.8,49.245V88.59L1.12,97.924A57.42,57.42,0,0,1,13.8,49.245" transform="translate(0 -29.401)" fill="#f5f1ee"></path><path id="Path_84" data-name="Path 84" d="M207.11,102.721h-.079v-.669q.046.335.079.669" transform="translate(-123.604 -60.928)" fill="#f5f1ee"></path><path id="Path_85" data-name="Path 85" d="M185.917,8V35.089A28.535,28.535,0,0,0,171.6,19.762h.149V3.018A57.37,57.37,0,0,1,185.917,8" transform="translate(-102.451 -1.802)" fill="#f5f1ee"></path><path id="Path_86" data-name="Path 86" d="M137.124.731v16.2A28.372,28.372,0,0,0,118,16.88V.858A58.059,58.059,0,0,1,137.124.731" transform="translate(-70.45 0)" fill="#f5f1ee"></path><path id="Path_87" data-name="Path 87" d="M91.616,20A28.558,28.558,0,0,0,78.175,33.325V8.236A57,57,0,0,1,91.6,3.42V20Z" transform="translate(-46.673 -2.042)" fill="#f5f1ee"></path></g></svg> 