<svg height="77" width="207" xmlns="http://www.w3.org/2000/svg"><g fill="none" fill-rule="evenodd"><path d="M1 1v34.322h7.612v-8.533h30.43V1zm7.645 18.133H31.4V8.658H8.645z" fill="#336171"/><path d="M31.43 28.826v8.435H1v25.79h38.042V28.826zM8.645 55.393h22.753V44.918H8.645zm41.714 7.276h6.322v-4.563h5.526c4.591 0 7.175-2.723 7.175-6.736 0-4.014-2.584-6.763-7.175-6.763H50.359zm6.322-9.512v-3.6h4.536c1.237 0 2.062.549 2.062 1.786s-.825 1.814-2.062 1.814zm15.312 9.512h6.323v-6.406h6.378v6.406h6.323V44.607h-6.323v6.159h-6.378v-6.159h-6.323zm20.81 0h6.984l.879-2.172h7.807l.88 2.172h6.983l-8.083-18.062h-7.367zm9.87-7.12l1.869-4.702h.055l1.87 4.701zm16 7.12h6.322v-8.357l7.065 8.357h5.388V44.607h-6.323v8.55l-7.065-8.55h-5.388zm27.517 0h6.048V50.106h6.13v-5.499H140.06v5.499h6.13zm24.136.687c6.598 0 10.584-4.37 10.584-9.73 0-5.362-3.986-9.733-10.584-9.733-6.597 0-10.583 4.37-10.583 9.732 0 5.36 3.986 9.73 10.583 9.73zm0-5.223c-2.528 0-4.26-1.897-4.26-4.508 0-2.613 1.732-4.51 4.26-4.51 2.53 0 4.261 1.897 4.261 4.51 0 2.611-1.732 4.508-4.26 4.508zm24.687 5.085l4.893-7.532v6.983h6.323V44.607h-5.91l-5.306 8.88-5.306-8.88h-5.91v18.062h6.323v-6.983zM51.093 76.502H53.5c1.594 0 2.686-.892 2.686-2.614 0-1.721-1.092-2.606-2.686-2.606h-2.407zm.51-.454v-4.32H53.5c1.323 0 2.184.75 2.184 2.16 0 1.419-.86 2.16-2.184 2.16zm7.014.454h4.655v-.446h-4.145v-1.993h3.539v-.446h-3.539v-1.905h4.145v-.446h-4.655zm8.759 0h1.403l2.032-5.236h-.534l-1.833 4.79h-.733l-1.84-4.79h-.527zm5.643 0h4.655v-.446h-4.145v-1.993h3.539v-.446h-3.539v-1.905h4.145v-.446h-4.655zm7.38 0h4.456v-.446h-3.946v-4.79h-.51zm9.014.136c1.754 0 2.981-1.147 2.981-2.757 0-1.611-1.235-2.735-2.98-2.735-1.754 0-2.973 1.124-2.973 2.735 0 1.61 1.22 2.757 2.972 2.757zm0-.447c-1.498 0-2.486-.94-2.486-2.31 0-1.38 1.004-2.288 2.486-2.288 1.49 0 2.495.908 2.495 2.288 0 1.37-.996 2.31-2.495 2.31zm5.412.311h.51v-1.658h2.646c1.172 0 1.913-.74 1.913-1.792 0-1.061-.741-1.786-1.913-1.786h-3.156zm.51-2.104v-2.686h2.503c.829 0 1.57.43 1.57 1.34 0 .908-.75 1.346-1.586 1.346zm6.87 2.104h.51v-4.678l2.718 4.216 2.718-4.216v4.678h.503v-5.236h-.75l-2.471 3.929-2.478-3.93h-.75zm9.325 0h4.655v-.446h-4.144v-1.993h3.538v-.446h-3.538v-1.905h4.144v-.446h-4.655zm7.381 0h.51v-4.511l4.025 4.511h.558v-5.236h-.502v4.59l-4.05-4.59h-.54zm9.819 0h.502v-4.79h2.407v-.446h-5.324v.446h2.415zm6.982.112c1.267 0 2.16-.439 2.16-1.419 0-.916-.638-1.323-2.065-1.546-1.298-.207-1.737-.494-1.737-1.076 0-.614.566-.948 1.602-.948.71 0 1.283.19 1.634.39l.215-.39c-.39-.224-.996-.447-1.857-.447-1.299 0-2.08.526-2.08 1.41 0 .861.614 1.276 2.208 1.516 1.14.175 1.593.43 1.593 1.083 0 .725-.582.98-1.69.98-.78 0-1.593-.303-1.984-.525l-.191.421c.422.24 1.26.55 2.192.55z" fill="#181818"/></g></svg>