<?xml version="1.0" encoding="UTF-8"?>
<svg id="a" data-name="Layer 1" xmlns="http://www.w3.org/2000/svg" width="2500" height="2500" viewBox="0 0 2500 2500">
  <rect y="0" width="2500" height="2500"/>
  <path d="M1701.316,341.185c272.606,64.771,399.821,166.553,399.821,166.553,0,0,78.755,320.777-293.809,1073.366-168.406,340.185-514.718,626.054-557.327,634.776-42.613-8.722-388.925-294.59-557.331-634.776C320.108,828.515,398.862,507.738,398.862,507.738c0,0,127.216-101.782,399.821-166.553,277.954-66.045,542.761-85.508,902.633,0Z" fill="#fff"/>
  <path d="M1250.001,2121.427c-37.251-27.575-105.642-84.584-189.377-171.741-89.359-93.011-213.116-238.704-295.232-404.581-80.764-163.145-146.136-318.36-194.302-461.332-38.478-114.217-66.109-220.878-82.125-317.019-17.823-106.992-17.078-176.926-14.415-212.571,14.896-9.371,36.388-21.927,64.56-36.024,55.371-27.708,148.606-67.207,278.33-98.029,157.537-37.433,294.09-54.867,429.739-54.867,137.583,0,279.997,17.948,435.379,54.867,129.725,30.823,222.96,70.322,278.331,98.029,28.171,14.097,49.663,26.652,64.559,36.024,2.663,35.644,3.408,105.579-14.415,212.571-16.016,96.141-43.647,202.802-82.125,317.019-48.165,142.972-113.537,298.187-194.302,461.332-82.116,165.877-205.873,311.569-295.232,404.581-83.734,87.157-152.125,144.166-189.376,171.741Z"/>
  <g>
    <path d="M827.568,559.766c-10.458-4.351-17.647-12.63-21.572-24.839l34.546-9.104c1.438,4.117,3.458,6.865,6.062,8.243,2.602,1.381,5.557,1.634,8.863.762,2.975-.784,5.224-2.196,6.749-4.238,1.523-2.042,1.927-4.426,1.209-7.152-.928-3.52-3.245-5.825-6.949-6.916-3.706-1.088-9.454-1.882-17.244-2.38-8.292-.608-15.102-1.515-20.429-2.726-5.329-1.207-10.347-3.711-15.061-7.512-4.713-3.797-8.073-9.503-10.079-17.116-2.036-7.724-1.907-14.833.389-21.333,2.293-6.496,6.374-12.036,12.237-16.619,5.864-4.581,12.981-7.977,21.357-10.184,13.554-3.572,25.242-3.159,35.062,1.238,9.821,4.399,16.562,12.432,20.228,24.1l-35.208,9.278c-1.069-3.605-2.862-6.048-5.378-7.33-2.519-1.278-5.375-1.499-8.57-.657-2.425.639-4.213,1.901-5.366,3.783-1.155,1.885-1.371,4.188-.653,6.915.599,2.274,1.968,4.009,4.111,5.204,2.141,1.198,4.636,2.058,7.486,2.583,2.848.525,6.993,1.044,12.43,1.553,8.07.669,14.841,1.647,20.308,2.94,5.467,1.292,10.543,3.782,15.227,7.468,4.683,3.686,7.953,9.052,9.809,16.094,1.886,7.156,1.842,14.034-.132,20.627-1.974,6.596-5.807,12.404-11.494,17.425-5.688,5.024-12.996,8.709-21.921,11.062-13.554,3.572-25.561,3.183-36.016-1.169Z" fill="#fff"/>
    <path d="M1001.403,401.856l24.387,121.814-32.852,6.577-9.789-48.898-40.059,8.019,9.789,48.899-32.852,6.577-24.387-121.815,32.852-6.577,9.167,45.789,40.059-8.021-9.167-45.788,32.852-6.577Z" fill="#fff"/>
    <path d="M1068.801,510.478c-10.298-4.494-18.829-11.375-25.593-20.645-6.768-9.269-10.852-20.146-12.26-32.635-1.407-12.487.154-24.002,4.688-34.545,4.531-10.543,11.319-19.12,20.366-25.733,9.044-6.611,19.333-10.569,30.864-11.869,11.646-1.312,22.588.253,32.819,4.692,10.232,4.441,18.701,11.298,25.408,20.574,6.708,9.277,10.765,20.159,12.172,32.646,1.408,12.49-.126,24-4.601,34.536-4.475,10.537-11.232,19.141-20.269,25.814-9.04,6.672-19.323,10.659-30.854,11.958-11.531,1.299-22.446-.297-32.742-4.791ZM1117.557,471.331c4.404-6.453,6.051-14.605,4.941-24.452-1.137-10.086-4.566-17.753-10.29-23.007-5.723-5.252-12.953-7.387-21.688-6.402-8.853.998-15.456,4.691-19.807,11.078-4.353,6.39-5.959,14.625-4.823,24.712,1.123,9.968,4.516,17.58,10.182,22.837,5.664,5.261,12.922,7.39,21.775,6.392,8.736-.984,15.306-4.703,19.709-11.158Z" fill="#fff"/>
    <path d="M1316.529,380.918l.577,124.23-33.503.156-.318-68.547-22.417,68.653-28.033.129-23.226-68.969.32,69.076-33.503.155-.576-124.23,40.512-.188,30.63,80.565,29.197-80.843,40.34-.188Z" fill="#fff"/>
    <path d="M1394.148,512.429l-19.792-47.75-3.576-.316-4.046,45.637-33.373-2.958,10.971-123.747,52.613,4.665c9.647.854,17.667,3.307,24.06,7.352,6.39,4.046,11.022,9.233,13.893,15.561,2.871,6.33,3.975,13.24,3.311,20.727-.747,8.425-3.646,15.628-8.694,21.607-5.051,5.981-12.008,9.935-20.872,11.86l22.793,50.67-37.289-3.306ZM1372.866,440.841l16.516,1.464c4.539.402,8.043-.406,10.512-2.429,2.466-2.021,3.888-5.14,4.261-9.353.353-3.976-.535-7.212-2.658-9.7-2.125-2.489-5.4-3.929-9.828-4.321l-16.516-1.464-2.287,25.802Z" fill="#fff"/>
    <path d="M1494.628,399.725l-17.209,123.034-33.181-4.642,17.21-123.034,33.18,4.641Z" fill="#fff"/>
    <path d="M1656.997,429.782l-24.202,121.852-32.862-6.527,13.354-67.234-35.653,62.805-27.497-5.462-9.009-72.215-13.457,67.752-32.862-6.527,24.202-121.851,39.736,7.892,13.953,85.055,44.728-73.399,39.568,7.859Z" fill="#fff"/>
  </g>
  <path d="M1519.911,690.095c163.032,38.737,239.114,99.608,239.114,99.608,0,0,47.099,191.841-175.713,641.929-100.716,203.449-307.828,374.413-333.311,379.629-25.485-5.216-232.597-176.18-333.313-379.629-222.812-450.088-175.713-641.929-175.713-641.929,0,0,76.082-60.871,239.114-99.608,166.231-39.498,324.6-51.138,539.822,0Z" fill="#fff"/>
  <g>
    <path d="M1636.806,1514.57c2.615,5.867,3.377,12.351,2.287,19.446-1.092,7.099-4.374,14.328-9.848,21.688l-9.261,12.454,30.557,22.724-18.713,25.165-90.516-67.312,27.975-37.618c5.409-7.274,11.292-12.504,17.647-15.688,6.354-3.182,12.757-4.371,19.202-3.566,6.447.807,12.622,3.404,18.527,7.797,5.479,4.073,9.524,9.045,12.142,14.91ZM1605.57,1525.337c-6.59-4.9-12.528-3.799-17.811,3.305l-7.447,10.015,19.644,14.607,7.447-10.014c5.282-7.104,4.673-13.075-1.833-17.913Z" fill="#fff"/>
    <path d="M1727.139,1434.126l-18.473,35.479,13.513,13.891-15.222,29.234-81.062-88.564,16.699-32.073,118.967,15.762-15.295,29.377-19.128-3.104ZM1702.231,1429.996l-37.973-6.061,26.815,27.49,11.157-21.43Z" fill="#fff"/>
    <path d="M1706.837,1251.734l22.836,10.076-12.143,27.52,80.364,35.46-12.66,28.691-80.364-35.46-12.014,27.228-22.836-10.076,36.816-83.438Z" fill="#fff"/>
    <path d="M1844.475,1208.48l-46.807,6.436-1.176,3.147,38.973,14.55-10.968,29.379-105.676-39.452,17.292-46.317c3.17-8.492,7.332-15.137,12.479-19.934,5.149-4.794,10.857-7.731,17.122-8.808,6.268-1.076,12.598-.42,18.992,1.966,7.194,2.686,12.778,7.021,16.751,13,3.974,5.982,5.69,13.199,5.153,21.65l50.119-8.444-12.256,32.827ZM1776.407,1210.565l5.429-14.54c1.491-3.996,1.662-7.348.51-10.057-1.151-2.706-3.528-4.733-7.125-6.076-3.396-1.268-6.454-1.241-9.167.079-2.714,1.322-4.798,3.93-6.253,7.827l-5.428,14.54,22.034,8.226Z" fill="#fff"/>
    <path d="M1870.849,1110.038c-7.138,7.215-15.637,12.143-25.496,14.786-9.86,2.646-20.134,2.49-30.829-.463-10.692-2.953-19.593-8.093-26.697-15.423-7.105-7.329-11.844-15.912-14.218-25.754-2.371-9.839-2.153-19.85.658-30.029,2.839-10.28,7.797-19.01,14.867-26.187,7.073-7.176,15.531-12.061,25.377-14.653,9.845-2.593,20.115-2.412,30.808.541,10.694,2.954,19.599,8.068,26.719,15.346,7.119,7.278,11.891,15.845,14.315,25.698,2.424,9.856,2.23,19.871-.58,30.05-2.812,10.179-7.786,18.876-14.924,26.089ZM1855.194,1055.834c-3.802-5.863-9.919-9.96-18.352-12.289-8.637-2.385-16.064-2.029-22.287,1.065-6.222,3.096-10.398,8.499-12.527,16.21-2.158,7.815-1.354,14.622,2.411,20.418,3.768,5.8,9.967,9.89,18.604,12.275,8.535,2.357,15.905,2.014,22.112-1.031,6.209-3.042,10.391-8.473,12.549-16.288,2.13-7.711,1.294-14.499-2.51-20.363Z" fill="#fff"/>
    <path d="M1889.297,949.233l5.197-34.652,23.734,3.56-9.848,65.666-111.553-16.729,4.65-31.013,87.818,13.169Z" fill="#fff"/>
  </g>
  <g>
    <path d="M598.447,982.175c4.008-9.69,11.573-16.255,22.698-19.697l8.115,32.44c-3.752,1.269-6.261,3.105-7.527,5.512-1.27,2.405-1.513,5.162-.735,8.266.698,2.794,1.973,4.921,3.823,6.383,1.85,1.46,4.017,1.881,6.5,1.26,3.206-.802,5.314-2.925,6.324-6.365,1.007-3.442,1.758-8.797,2.248-16.066.593-7.735,1.451-14.081,2.577-19.035,1.124-4.956,3.426-9.598,6.905-13.932,3.478-4.333,8.685-7.368,15.618-9.103,7.035-1.76,13.502-1.51,19.402.753,5.898,2.261,10.918,6.175,15.059,11.736,4.139,5.562,7.194,12.273,9.162,20.139,3.184,12.728,2.752,23.639-1.295,32.732-4.049,9.095-11.388,15.245-22.02,18.456l-8.271-33.061c3.284-.933,5.516-2.563,6.693-4.891,1.175-2.33,1.389-4.994.639-7.994-.569-2.277-1.71-3.971-3.416-5.083-1.709-1.114-3.803-1.357-6.286-.736-2.071.518-3.656,1.765-4.753,3.746-1.101,1.979-1.896,4.293-2.386,6.947-.491,2.651-.983,6.513-1.473,11.583-.647,7.527-1.569,13.834-2.771,18.918-1.202,5.083-3.491,9.779-6.866,14.087-3.376,4.308-8.271,7.265-14.687,8.87-6.52,1.631-12.774,1.464-18.763-.501-5.991-1.965-11.256-5.652-15.796-11.057-4.543-5.406-7.86-12.3-9.957-20.682-3.185-12.728-2.772-23.938,1.236-33.625Z" fill="#fff"/>
    <path d="M662.869,1165.071l-12.909-37.86-19.377.184-10.637-31.197,120.034,2.518,11.67,34.225-93.547,75.171-10.688-31.348,15.454-11.693ZM683.054,1149.905l30.604-23.282-38.401.415,7.797,22.867Z" fill="#fff"/>
    <path d="M807.474,1276.294l-23.096,9.465-17.109-41.751-18.358,7.523,12.619,30.795-22.06,9.041-12.619-30.795-40.862,16.745-11.891-29.018,104.376-42.772,29,70.769Z" fill="#fff"/>
    <path d="M812.999,1349.912l-16.719,7.684,15.032,32.711-21.662,9.955-15.032-32.711-18.464,8.484,17.037,37.073-22.825,10.489-30.132-65.567,102.494-47.103,30.133,65.567-22.825,10.489-17.037-37.072Z" fill="#fff"/>
    <path d="M909.528,1487.082l-21.988,11.812-14.234-26.499-77.383,41.567-14.84-27.627,77.383-41.566-14.082-26.218,21.988-11.811,43.156,80.342Z" fill="#fff"/>
    <path d="M988.557,1599.34l-85.6,13.041-29.018,21.035-18.499-25.521,29.018-21.035,39.023-77.295,21.034,29.019-23.592,41.605,46.88-9.479,20.753,28.629Z" fill="#fff"/>
  </g>
  <g>
    <path d="M923.995,570.656l7.472,24.795-28.572,8.61,26.297,87.258-29.787,8.977-26.297-87.258-28.268,8.519-7.473-24.794,86.627-26.107Z" fill="#fff"/>
    <path d="M989.644,668.98c-9.664-3.204-17.954-8.736-24.875-16.597-6.923-7.861-11.58-17.418-13.977-28.677-2.397-11.256-2.038-21.884,1.082-31.883,3.117-9.999,8.441-18.401,15.973-25.21,7.53-6.806,16.418-11.303,26.665-13.485,10.348-2.203,20.325-1.724,29.923,1.436,9.599,3.162,17.833,8.677,24.702,16.549,6.869,7.872,11.502,17.437,13.899,28.693,2.397,11.259,2.062,21.879-1.004,31.867-3.066,9.988-8.36,18.413-15.878,25.275-7.52,6.863-16.401,11.384-26.647,13.566-10.246,2.182-20.201,1.67-29.863-1.534ZM1029.918,629.09c3.373-6.261,4.114-13.831,2.224-22.707-1.936-9.092-5.713-15.782-11.334-20.075-5.62-4.29-12.311-5.61-20.073-3.957-7.867,1.675-13.467,5.612-16.798,11.808-3.333,6.199-4.031,13.842-2.095,22.934,1.914,8.986,5.653,15.628,11.222,19.929,5.567,4.304,12.284,5.616,20.151,3.94,7.762-1.653,13.331-5.609,16.703-11.873Z" fill="#fff"/>
    <path d="M1143.015,648.934l-27.363-40.099-3.308.41,5.31,42.832-30.875,3.827-14.397-116.141,48.674-6.034c8.924-1.106,16.687-.422,23.286,2.048,6.597,2.473,11.822,6.341,15.674,11.606,3.852,5.268,6.213,11.415,7.084,18.442.98,7.907-.233,15.112-3.639,21.611-3.407,6.501-8.944,11.508-16.611,15.022l30.662,42.198-34.497,4.277ZM1109.608,587.17l15.279-1.894c4.199-.521,7.22-1.954,9.063-4.302,1.841-2.345,2.518-5.498,2.027-9.451-.463-3.732-1.905-6.538-4.322-8.413-2.419-1.875-5.675-2.558-9.771-2.051l-15.279,1.895,3.002,24.216Z" fill="#fff"/>
    <path d="M1212.756,636.432c-8.893-4.957-16.001-11.943-21.328-20.961-5.328-9.018-8.114-19.278-8.36-30.787-.247-11.506,2.095-21.879,7.032-31.117,4.934-9.238,11.737-16.495,20.41-21.774,8.671-5.276,18.244-8.029,28.718-8.254,10.578-.227,20.288,2.112,29.125,7.013,8.837,4.903,15.893,11.863,21.167,20.881,5.274,9.019,8.035,19.283,8.282,30.789.247,11.508-2.071,21.878-6.953,31.115s-11.659,16.522-20.329,21.855c-8.672,5.333-18.243,8.112-28.716,8.337s-20.157-2.141-29.047-7.097ZM1259.786,604.788c4.485-5.519,6.631-12.816,6.437-21.889-.2-9.294-2.658-16.573-7.375-21.842-4.717-5.267-11.043-7.816-18.978-7.646-8.041.172-14.279,2.992-18.711,8.455-4.435,5.465-6.551,12.842-6.352,22.136.197,9.185,2.627,16.41,7.292,21.677,4.663,5.271,11.016,7.817,19.057,7.644,7.935-.17,14.145-3.015,18.63-8.536Z" fill="#fff"/>
    <path d="M1413.248,650.98l-30.991-2.729-35.531-68.786-5.738,65.152-30.991-2.729,10.267-116.579,30.991,2.729,35.458,69.613,5.811-65.979,30.991,2.729-10.267,116.579Z" fill="#fff"/>
    <path d="M1531.675,552.924l-4.47,25.507-29.393-5.15-15.729,89.767-30.644-5.37,15.729-89.766-29.08-5.096,4.469-25.507,89.118,15.615Z" fill="#fff"/>
    <path d="M1546.382,669.592c-7.248-7.15-12.233-15.781-14.959-25.893-2.729-10.113-2.674-20.745.16-31.901,2.833-11.154,7.859-20.526,15.083-28.111,7.221-7.586,15.713-12.764,25.481-15.537,9.765-2.77,19.726-2.868,29.88-.29,10.254,2.604,18.988,7.451,26.196,14.532,7.208,7.084,12.15,15.674,14.826,25.773,2.676,10.1,2.597,20.728-.236,31.882-2.833,11.157-7.835,20.532-15.005,28.131-7.171,7.599-15.646,12.811-25.425,15.636-9.781,2.825-19.746,2.949-29.9.37-10.153-2.579-18.854-7.443-26.099-14.593ZM1600.151,651.65c5.796-4.121,9.811-10.581,12.045-19.377,2.288-9.01,1.862-16.681-1.278-23.018-3.14-6.334-8.556-10.479-16.248-12.434-7.796-1.979-14.56-.928-20.29,3.154-5.733,4.083-9.741,10.628-12.03,19.638-2.262,8.905-1.848,16.516,1.242,22.838,3.087,6.323,8.53,10.473,16.326,12.453,7.692,1.954,14.436.87,20.233-3.253Z" fill="#fff"/>
  </g>
  <path d="M1702.34,945.241c-9.58,57.49-26.11,121.28-49.12,189.59-1.29,3.83-2.6,7.68-3.94,11.54-.45,1.33-.91,2.66-1.38,4-.46,1.33-.93,2.66-1.4,3.99-7.23,20.63-15.04,41.67-23.42,63.08-1.03,2.64-2.07,5.29-3.12,7.94-1.05,2.65-2.11,5.31-3.18,7.98-22.78,56.83-49.46,116.17-79.76,177.37-49.11,99.2-123.12,186.34-176.56,241.96-18.38,19.13-35.52,35.83-50.96,50.12-26.63,24.66-48.19,42.14-62.29,52.58q-.01.01-.02,0c-13.56-10.03-34-26.58-59.22-49.74-16.23-14.9-34.42-32.55-54.03-52.96-53.44-55.62-127.45-142.76-176.56-241.96-30.97-62.56-58.16-123.17-81.26-181.14-1.07-2.67-2.12-5.33-3.16-7.98-1.05-2.65-2.09-5.29-3.11-7.93-7.66-19.68-14.83-39.04-21.51-58.06-.47-1.33-.94-2.66-1.4-3.98-.46-1.33-.92-2.66-1.38-3.98-1.49-4.29-2.95-8.57-4.38-12.83-23.02-68.311-39.54-132.1-49.12-189.59-10.66-63.99-10.21-105.81-8.62-127.13,8.91-5.61,21.76-13.12,38.61-21.55,33.11-16.57,88.87-40.19,166.46-58.62,94.21-22.39,175.88-32.82,257-32.82,82.28,0,167.46,10.74,260.38,32.82,77.58,18.43,133.34,42.05,166.46,58.62,16.85,8.43,29.7,15.94,38.61,21.55,1.59,21.31,2.04,63.14-8.62,127.13Z"/>
  <path d="M1112.539,1253.389l-2.262-3.738c-2.41-1.639-6.444-4.476-10.575-7.755-10.853-8.623-15.985-15.083-17.116-21.608-1.524-8.525-.607-23.707,5.001-30.134.246-.328.967-1.312,1.475-2.033,4.918-6.837,9.509-12.755,15.165-15.494-3.542-4.344-8.345-9.951-10.804-12.329-5.624-1.656-14.969-5.213-16.363-14.378-.147-.967-.573-3.885-.147-42.217l-3.525-9.41c-.344-.918-.574-1.886-.672-2.853l-2.377-23.51c-.607-6.148,3.755-11.641,9.853-12.46l5.558-.738-91.746-102.714-15.362,53.857c-.114.393-.213.787-.361,1.197-.147.393-.295.787-.475,1.181-.164.393-.361.787-.574,1.18-.164.312-.361.64-.557.951-.214.311-.427.64-.656.935-.131.229-.311.443-.492.656-.213.279-.427.541-.656.803-.164.181-.328.361-.492.508-.163.181-.327.328-.508.508-.344.328-.688.656-1.082.951-3.033,2.459-7.116,4.115-12.002,4.115-1.098,0-2.245-.082-3.426-.262l-83.22-17.51-36.544-7.673,22.166,80.597,9.279,33.774c6.739,25.461,12.002,35.987-6.787,42.692l-2.591,1.213-40.102,18.854,50.759,41.234,155.408,126.241c8.165,6.329,12.296,17.723,9.394,28.052l-18.051,59.202c56.005-6.443,107.42-15.477,161.507-22.723l5.296-141.833-61.908-1.803c-3.869-.115-7.443-2.197-9.427-5.525Z" fill="#fff" fill-rule="evenodd"/>
  <path d="M1122.09,1254.824c-2.459-.078-4.771-1.434-6.03-3.542l-2.742-4.518-.742-.507c-2.049-1.395-6.127-4.244-10.332-7.571-9.864-7.844-14.684-13.737-15.62-19.123-1.551-8.644-.146-21.903,4.049-26.714l.195-.234c.254-.342,1.005-1.366,1.522-2.098,4.42-6.157,8.791-11.854,13.62-14.206l4.673-2.254-3.288-4.029c-3.678-4.508-8.547-10.186-11.123-12.674l-.732-.702-.956-.283c-8.43-2.488-12.703-6-13.474-11.064-.234-1.571-.449-10.059-.107-41.553l.02-.771-3.795-10.128c-.224-.595-.371-1.21-.439-1.824l-2.371-23.494c-.381-3.961,2.381-7.474,6.322-8.001l13.22-1.756-101.859-114.046-17.396,61.008-.098.332c-.049.185-.107.41-.166.556-.117.313-.215.605-.42,1.054-.107.253-.244.527-.42.839-.098.205-.224.42-.351.625l-.127.175c-.117.156-.224.322-.341.478l-.507.693c-.166.205-.322.4-.449.536-.068.078-.146.156-.195.205l-.585.595c-.234.214-.468.449-.839.722-1.805,1.463-4.898,3.21-9.415,3.21-.898,0-1.815-.068-2.703-.195l-126.222-26.548,33.212,120.807c.693,2.644,1.376,5.122,2.01,7.435,5.825,21.153,6.615,25.777-6.215,30.353l-5.503,2.585-43.456,20.411,73.272,59.525,138.027,112.133c7.074,5.474,10.342,15.22,7.981,23.611l-19.865,65.184,6.215-.712c33.66-3.873,66.131-8.761,97.518-13.464,20.869-3.142,42.441-6.381,64.062-9.279l3.425-.449,5.571-149.414-66.033-1.922ZM1113.845,1407.779c-29.387,4.41-59.72,8.966-91.03,12.703l16.255-53.3c3.268-11.611-1.19-24.929-10.752-32.344l-149.248-121.226-51.857-42.129,30.87-14.518,5.737-2.693c20.226-7.308,16.625-20.401,11.181-40.188-.624-2.293-1.307-4.742-2.01-7.386l-29.66-107.899,113.187,23.806.224.039c1.346.205,2.703.322,4.049.322,5.473,0,10.518-1.746,14.469-4.946.576-.439,1.054-.888,1.503-1.327l.127-.127c.137-.127.263-.253.4-.38.205-.205.42-.439.663-.713.263-.302.527-.615.771-.927.185-.224.429-.527.673-.917.185-.224.351-.468.507-.703l.234-.371c.263-.381.507-.81.693-1.171.283-.517.546-1.044.693-1.414.234-.488.41-.976.615-1.513.146-.4.263-.8.361-1.181l13.406-46.978,81.741,91.508c-7.259,1.942-12.147,8.84-11.386,16.528l2.381,23.523c.137,1.317.429,2.615.907,3.874l3.249,8.683c-.41,38.06.02,40.91.205,42.119,1.239,8.108,7.376,13.952,18.245,17.387,1.756,1.805,4.371,4.79,6.859,7.737-4.576,3.532-8.488,8.664-12.401,14.099-.429.615-1.034,1.453-1.317,1.825-6.664,7.805-7.435,24.528-5.844,33.407,1.317,7.581,6.888,14.801,18.616,24.119,3.942,3.132,7.766,5.844,10.069,7.425l1.795,2.966c2.722,4.546,7.503,7.366,12.82,7.512l57.779,1.678-5.015,134.261c-20.528,2.791-40.958,5.854-60.764,8.83Z"/>
  <path d="M1180.726,858.714h17.592l.082-60.759-24.609,45.873c-8.509,15.198-23.756,13.788-38.987,5.296l-54.283-28.101,29.298,155.457c1.213-.541,2.574-.836,3.983-.902l63.76-2.426-.311-40.495c-1.918-.525-3.673-1.525-5.099-2.968-2.131-2.164-3.328-5.099-3.295-8.132l.46-51.546c.065-6.247,5.147-11.296,11.411-11.296Z" fill="#fff" fill-rule="evenodd"/>
  <path d="M1180.727,862.811h21.689l.098-81.205-32.294,60.218c-6.332,11.308-17.572,12.547-33.534,3.649l-61.75-31.963,31.807,168.82,4.742-2.117c.722-.303,1.58-.498,2.478-.537l67.731-2.585-.361-47.564-3.005-.829c-1.268-.342-2.352-.985-3.249-1.883-1.376-1.395-2.146-3.288-2.117-5.23l.449-51.534c.049-3.99,3.317-7.239,7.317-7.239ZM1113.055,971.51l-26.948-142.974,46.695,24.167c19.728,10.986,35.963,8.488,44.608-6.946l16.869-31.456-.049,40.315h-13.503c-8.469,0-15.416,6.878-15.503,15.357l-.468,51.535c-.039,4.098,1.59,8.117,4.478,11.064,1.151,1.151,2.488,2.127,3.942,2.878l.263,33.758-59.828,2.283c-.185,0-.371.01-.556.02Z"/>
  <path d="M1320.296,932.655l-.295,40.495,63.76,2.426c1.41.066,2.754.361,3.983.885l29.265-155.441-54.267,28.101c-15.247,8.492-30.478,9.903-38.987-5.296l-24.592-45.857.066,60.743h17.592c6.247,0,11.345,5.05,11.395,11.28l.492,51.546c.016,3.049-1.164,5.984-3.295,8.148-1.427,1.443-3.197,2.443-5.115,2.968Z" fill="#fff" fill-rule="evenodd"/>
  <path d="M1360.757,845.542c-15.864,8.83-27.104,7.571-33.397-3.649l-32.314-60.277.098,81.195h21.679c3.99,0,7.259,3.239,7.298,7.22l.488,51.534c.01,1.961-.761,3.864-2.117,5.239-.888.898-2.01,1.551-3.278,1.893l-2.986.829-.351,47.564,67.692,2.576c.937.049,1.795.244,2.566.566l4.693,2,31.768-168.722-61.838,32.031ZM1383.91,971.49l-59.779-2.283.244-33.758c1.463-.752,2.81-1.727,3.961-2.888,2.898-2.947,4.488-6.868,4.478-11.064l-.507-51.534c-.058-8.469-7.005-15.347-15.484-15.347h-13.503l-.039-40.295,16.889,31.514c8.605,15.347,24.84,17.854,44.451,6.927l46.803-24.226-26.919,142.974c-.195-.01-.381-.02-.595-.02Z"/>
  <path d="M1462.424,1366.072c-2.902-10.329,1.213-21.723,9.378-28.052l155.44-126.241,50.743-41.234-40.119-18.854-2.574-1.213c-18.789-6.706-13.542-17.232-6.804-42.692l9.313-33.807,22.149-80.565-36.544,7.673-83.22,17.51c-1.181.181-2.345.262-3.443.262-4.886,0-8.952-1.656-11.985-4.115-.377-.295-.738-.623-1.098-.951-.688-.656-1.312-1.377-1.869-2.099-.295-.377-.541-.738-.787-1.115-.263-.377-.476-.771-.688-1.148l-.295-.59c-.197-.393-.377-.787-.524-1.18-.082-.197-.147-.393-.213-.59-.148-.41-.263-.803-.361-1.197l-15.378-53.857-91.763,102.714,5.574.738c6.115.82,10.477,6.312,9.854,12.444l-2.378,23.51c-.098.983-.311,1.951-.656,2.869l-3.525,9.41c.443,38.332,0,41.25-.164,42.267-1.427,9.115-10.738,12.673-16.362,14.329-2.426,2.378-7.263,7.985-10.788,12.329,5.64,2.705,10.214,8.607,15.116,15.428.524.754,1.246,1.738,1.508,2.066,5.607,6.427,6.525,21.625,5.017,30.167-1.164,6.525-6.279,12.985-17.149,21.608-4.132,3.279-8.149,6.115-10.558,7.755l-2.246,3.738c-2.001,3.328-5.558,5.41-9.444,5.525l-61.891,1.803,5.296,141.833c54.087,7.246,105.502,16.28,161.49,22.723l-18.05-59.202Z" fill="#fff" fill-rule="evenodd"/>
  <path d="M1474.383,1341.199l133.442-108.387,77.809-63.203-46.1-21.67-2.498-1.171-.371-.156c-12.83-4.576-12.05-9.21-6.215-30.392.624-2.302,1.307-4.761,1.99-7.337l33.241-120.865-126.222,26.548c-.898.127-1.815.195-2.722.195-4.507,0-7.6-1.746-9.454-3.249-.303-.225-.576-.498-.8-.683-.468-.449-.956-1.005-1.463-1.659-.215-.283-.39-.546-.654-.937-.146-.214-.263-.429-.39-.654l-.303-.575c-.127-.254-.234-.527-.342-.781l-.068-.156c-.019-.088-.049-.166-.127-.4-.098-.263-.176-.536-.283-.917l-17.415-61.018-101.879,114.046,13.25,1.756c3.942.527,6.722,4.02,6.332,7.971l-2.39,23.504c-.059.674-.205,1.288-.41,1.844l-3.795,10.128v.771c.371,31.533.146,40.002-.117,41.582-.78,5.044-5.054,8.557-13.464,11.035l-.976.283-.732.712c-2.625,2.585-7.571,8.322-11.103,12.684l-3.268,4.039,4.683,2.244c4.8,2.303,9.152,7.991,13.523,14.069.576.829,1.385,1.922,1.668,2.283l.107.127c4.195,4.81,5.6,18.089,4.078,26.763-.956,5.385-5.795,11.278-15.659,19.113-4.293,3.395-8.313,6.205-10.322,7.571l-.742.517-2.712,4.508c-1.288,2.146-3.542,3.463-6.059,3.542l-66.004,1.922,5.571,149.414,3.425.449c21.621,2.898,43.212,6.137,64.092,9.279,31.377,4.722,63.828,9.591,97.479,13.464l6.215.712-19.874-65.136c-2.351-8.478.917-18.206,8.03-23.728ZM1458.47,1367.182l16.255,53.3c-31.29-3.737-61.613-8.284-90.981-12.703-19.816-2.976-40.256-6.039-60.794-8.83l-5.005-134.261,57.75-1.678c5.308-.146,10.108-2.956,12.85-7.512l1.776-2.966c2.263-1.571,6.049-4.244,10.049-7.425,11.718-9.279,17.279-16.499,18.635-24.109,1.629-9.201.878-25.641-5.893-33.495-.254-.332-.858-1.151-1.327-1.844-3.873-5.386-7.756-10.498-12.323-14.01,2.449-2.898,5.073-5.893,6.849-7.727,10.83-3.425,16.967-9.259,18.225-17.289.215-1.327.654-4.068.215-42.217l3.259-8.683c.459-1.22.771-2.527.898-3.903l2.381-23.504c.78-7.678-4.117-14.576-11.396-16.518l81.751-91.508,13.308,46.578c.127.527.283,1.053.459,1.522.078.263.166.517.273.771.185.498.419,1.005.673,1.513l.468.907c.254.439.507.888.742,1.22.303.478.624.937.985,1.386.742.966,1.512,1.834,2.342,2.624.439.4.888.8,1.288,1.102,4.049,3.298,9.084,5.044,14.557,5.044,1.356,0,2.722-.117,4.069-.322l113.411-23.845-29.69,107.938c-.693,2.595-1.356,5.025-1.99,7.317-5.444,19.796-9.044,32.909,11.181,40.217l3.103,1.463,33.514,15.747-45.681,37.124-10.683,8.674-144.681,117.499c-9.62,7.464-14.069,20.791-10.82,32.402Z"/>
  <polygon points="1205.544 1157.446 1185.945 1157.446 1195.738 1140.463 1205.544 1157.446" fill="#fff" fill-rule="evenodd"/>
  <polygon points="1205.544 1084.898 1195.738 1101.882 1185.945 1084.898 1205.544 1084.898" fill="#fff" fill-rule="evenodd"/>
  <polygon points="1258.583 1176.737 1248.765 1193.733 1238.959 1176.737 1258.583 1176.737" fill="#fff" fill-rule="evenodd"/>
  <polygon points="1258.583 1065.608 1238.959 1065.608 1248.765 1048.611 1258.583 1065.608" fill="#fff" fill-rule="evenodd"/>
  <polygon points="1290.666 1121.159 1269.722 1157.446 1227.834 1157.446 1206.877 1121.159 1227.834 1084.898 1269.722 1084.898 1290.666 1121.159" fill="#fff" fill-rule="evenodd"/>
  <polygon points="1311.623 1157.446 1291.999 1157.446 1301.817 1140.463 1311.623 1157.446" fill="#fff" fill-rule="evenodd"/>
  <polygon points="1311.623 1084.898 1301.817 1101.882 1291.999 1084.898 1311.623 1084.898" fill="#fff" fill-rule="evenodd"/>
  <path d="M1400.837,1068.911l-1.707-2.673-22.538-35.124,2.878-7.161-.224-33.036-74.863-2.858.537-70.511h8.244l-.4-43.349h-29.007l-.117-96.484-31.953-59.555h-5.874l-31.885,59.516-.117,96.523h-29.016l-.4,43.349h8.244l.517,70.511-74.853,2.858-.215,33.036,2.859,7.161-22.577,35.202v2.371l-12.215,1.639,1.922,19.025,4.371,11.63-.01.761s-.01,1.24-.039,3.269l-.039,3.913c-.02.878-.02,1.727-.02,2.537l-.097,15.425c-.02,4.117-.02,8.039,0,11.132l.029,1.815c0,.566.01,1.093.039,1.571l.068,1.717c.068.049.137.098.205.147.166.117.488.341.956.585.254.098.517.224.781.352.117.039.234.088.351.146l.244.098c1.444.575,2.917,1.005,4.186,1.356.107.03.234.069.371.108h.966l.849.79c.546.352,1.307.927,2.381,1.961l.946.937c.361.361.615.615.888.898.42.429.956.995,1.512,1.61.468.498,1.024,1.102,1.561,1.737l.78.849c.576.644,1.142,1.297,1.698,1.951.546.654,1.063,1.268,1.59,1.854.595.722,1.132,1.356,1.678,2,.215.283.39.498.576.722l.341.41c.322.381.634.761.946,1.141l.429.507c4.186,5.268,4.781,6.342,5.005,6.752,1.893,3.454,1.073,6.673.517,8.781l-.205.8c-.068.283-.098.429-.137.605-.839,4.147-4.508,4.878-6.937,5.366-1.103.215-2.361.459-3.786.966l-.01-.02-1.103.693c-.439.39-.79.693-1.151,1.054l-.556.546c-2,2.059-4.108,4.917-6.108,7.679l-.429.566c-.078.108-.166.234-.283.39-.049.069-.098.146-.166.224l-.088.127c-.156.263-.332.488-.498.712-.156.205-.351.468-.527.702l-.215.283c-.224.283-.41.536-.595.732l-.137.254c-.068.136-.156.342-.244.575l-.185.556c-.332,1.044-.634,2.439-.917,4.157-.068.449-.146,1.034-.195,1.619l-.049.449c-.068.644-.117,1.347-.156,2.049-.117,1.805-.088,3.425.039,4.927l.049.546v.029c.059.605.127,1.239.244,1.981l.117.468c.01.059.039.137.068.205.039.088.059.146.088.185l.097.224c.166.322.361.625.576.976.263.42.595.858,1.034,1.366l.107.156c.059.068.117.156.185.234l.137.166c.146.137.234.254.322.352.146.156.283.312.41.468l.215.224c.156.185.322.351.488.527.81.839,1.581,1.59,2.361,2.293l.527.478c1.024.937,2.127,1.883,3.386,2.898.488.41.956.78,1.434,1.161l.605.478c.224.185.498.4.781.605.38.293.751.575,1.122.868l.244.185c.205.166.312.244.429.312l.127.107c.303.234.605.459.907.664l.4.312c.195.137.371.263.546.391l.156.107c.205.156.41.283.595.42l.254.166c2.098,1.512,3.795,2.683,4.703,3.288l.498.332c.029.01.039.029.049.039.156.088.234.136.234.136l1.141.781.322.898,2.195,3.639,75.272,2.186-10.479,447.938c24.606,22.596,44.549,38.744,57.779,48.529q.01.01.02,0c13.757-10.186,34.792-27.24,60.774-51.301l-10.42-445.157,75.292-2.195,2.146-3.571.449-1.375,2.117-1.064.049-.02c.156-.127.302-.224.449-.312l3.229-2.244c.224-.166.449-.322.683-.469l.107-.078c1.034-.771,2.176-1.6,3.356-2.488.361-.283.82-.644,1.307-1.005.303-.224.615-.468.937-.722l1.932-1.551c1.239-1.024,2.322-1.941,3.317-2.859.429-.371.732-.654,1.024-.937.312-.283.634-.595.927-.898l.498-.488c.673-.663,1.346-1.415,2.107-2.283.137-.156.244-.293.351-.439l.225-.283c.332-.419.634-.878.907-1.307.088-.146.176-.303.283-.468.322-.605.4-.937.41-1.025.342-2,.498-4.283.42-6.576-.01-1.044-.078-2.078-.185-3.171l-.029-.293c-.293-2.576-.78-4.996-1.337-6.498-.02-.088-.224-.585-.312-.771-.244-.283-.556-.673-.917-1.141l-.332-.459c-.468-.624-.995-1.375-1.6-2.205l-1.151-1.59c-.712-.947-1.463-1.971-2.263-2.947-.273-.371-.537-.683-.781-.976-.049-.059-.117-.137-.166-.205l-1.639-1.854c-.176-.185-.361-.361-.537-.526-.732-.713-1.356-1.23-1.903-1.581l-.38-.215c-1.542-.556-2.791-.8-3.893-1.015-2.439-.488-6.117-1.22-6.966-5.425l-.302-1.278c-.566-2.127-1.425-5.357.488-8.85.205-.371.819-1.522,4.839-6.537,3.181-3.932,6.947-8.322,9.844-11.454l1.259-1.346c.605-.615,1.151-1.181,1.639-1.668l.429-.41c1.268-1.161,2.068-1.795,2.82-2.185.371-.205.742-.361,1.122-.468.215-.059.449-.127.693-.185l1.259-.381c.263-.059.4-.088.507-.137.234-.078.41-.127.566-.175.537-.185,1.112-.39,1.659-.605.332-.127.654-.254.966-.41.556-.244.898-.439,1.161-.605l.449-.283c.01-.01.02-.02.049-.049l.029-.293v-.029l.039-.79c.01-.839.019-1.717.029-2.732v-.039l.02-.459c.02-1.102.02-2.351.02-3.707.02-3.415,0-7.396-.01-11.396l-.049-8.264c-.01-1.961-.029-3.825-.049-5.513l-.029-2.927c0-.293,0-.585-.01-.868-.029-1.347-.029-2.352-.029-3.064-.01-.693-.01-1.171-.01-1.308v-.741l.254-.751,4.078-10.879,1.922-19.045-10.547-1.415ZM1352.113,1180.839h-68.882l-34.47,59.662-34.421-59.662h-68.911l34.451-59.681-34.451-59.652h68.911l34.421-59.681,34.47,59.681h68.892l-34.451,59.652,34.441,59.681Z" fill="#fff" fill-rule="evenodd"/>
  <path d="M1664.129,449.943c2.033-10.52,11.002-16.74,21.611-14.69,10.52,2.032,16.527,11.146,14.494,21.666-2.032,10.52-11.02,16.829-21.539,14.796-10.609-2.05-16.599-11.253-14.566-21.772ZM1667.962,450.683c-1.671,8.647,2.685,15.777,11.422,17.465,8.647,1.671,15.524-3.289,17.195-11.936,1.671-8.648-2.864-15.812-11.511-17.483-8.737-1.688-15.435,3.306-17.106,11.954ZM1685.681,456.141l3.563,8.364-5.634-.996-2.901-7.959-1.516-.293-1.378,7.132-4.636-.896,3.703-19.167,8.558,1.654c4.012.775,6.238,3.61,5.532,7.265-.551,2.853-2.552,4.593-5.292,4.896ZM1680.708,447.412l-.775,4.012,3.655.706c1.248.241,2.438-.176,2.714-1.603s-.691-2.168-1.939-2.409l-3.655-.706Z" fill="#fff"/>
</svg>